<?xml version="1.0" standalone="no"?>
<!DOCTYPE svg PUBLIC "-//W3C//DTD SVG 20010904//EN"
 "http://www.w3.org/TR/2001/REC-SVG-20010904/DTD/svg10.dtd">
<svg version="1.0" xmlns="http://www.w3.org/2000/svg"
 width="300.000000pt" height="300.000000pt" viewBox="0 0 300.000000 300.000000"
 preserveAspectRatio="xMidYMid meet">
<metadata>
Created by potrace 1.11, written by Peter Selinger 2001-2013
</metadata>
<g transform="translate(0.000000,300.000000) scale(0.100000,-0.100000)"
fill="#000000" stroke="none">
<path d="M0 1500 l0 -1500 1500 0 1500 0 0 1500 0 1500 -1500 0 -1500 0 0
-1500z m1400 195 l0 -655 -95 0 -95 0 0 90 0 90 -90 0 -90 0 0 -45 0 -45 -95
0 -95 0 0 95 0 95 -95 0 -95 0 0 45 0 45 280 0 280 0 0 235 0 235 -90 0 -90 0
0 95 0 95 -95 0 -95 0 0 45 0 45 185 0 185 0 0 95 0 95 95 0 95 0 0 -655z
m380 560 l0 -95 185 0 185 0 0 -45 0 -45 -95 0 -95 0 0 -95 0 -95 -90 0 -90 0
0 -235 0 -235 280 0 280 0 0 -45 0 -45 -95 0 -95 0 0 -95 0 -95 -95 0 -95 0 0
45 0 45 -90 0 -90 0 0 -90 0 -90 -95 0 -95 0 0 655 0 655 95 0 95 0 0 -95z
m-1130 -705 l0 -50 -95 0 -95 0 0 50 0 50 95 0 95 0 0 -50z m1880 0 l0 -50
-95 0 -95 0 0 50 0 50 95 0 95 0 0 -50z m-2070 -235 l0 -95 95 0 95 0 0 -90 0
-90 95 0 95 0 0 -95 0 -95 95 0 95 0 0 -95 0 -95 465 0 465 0 0 95 0 95 95 0
95 0 0 95 0 95 95 0 95 0 0 90 0 90 95 0 95 0 0 95 0 95 90 0 90 0 0 -140 0
-140 -90 0 -90 0 0 -95 0 -95 -95 0 -95 0 0 -95 0 -95 -95 0 -95 0 0 -90 0
-90 -95 0 -95 0 0 -95 0 -95 -465 0 -465 0 0 95 0 95 -95 0 -95 0 0 90 0 90
-95 0 -95 0 0 95 0 95 -95 0 -95 0 0 95 0 95 -90 0 -90 0 0 140 0 140 90 0 90
0 0 -95z"/>
</g>
</svg>
